.
..............................Site Info...........................

 -   http://www.scenetime.com  *_*   

Scenetime .Always on time . friendly online private torrent community ..

     We care to share . Join us on  http://www.scenetime.com 

    Be the first to get new release at  http://www.scenetime.com

        Seed back for speed


...................................NFO:.................................................[img]http://i.imgur.com/heCZB.jpg[/img]

[b]Act.of.Valor.2012.Partial.Blur.XViD.AC3-ADTRG[/b]

An elite team of Navy SEALs embark on a covert mission to recover a kidnapped CIA agent.  

[url]http://www.imdb.com/title/tt1591479/[/url]

Source -  Act of Valor 2012 KORSUB 720p HDRip H264-ARMS   Thanks

Complete name                            : Act.of.Valor.2012.Partial.Blur.XViD.AC3-ADTRG.avi
Format                                   : AVI
Format/Info                              : Audio Video Interleave
File size                                : 1.66 GiB
Duration                                 : 1h 49mn
Overall bit rate                         : 2 171 Kbps
Writing library                          : VirtualDub build 34703/release

Video
ID                                       : 0
Format                                   : MPEG-4 Visual
Codec ID                                 : XVID
Duration                                 : 1h 49mn
Bit rate                                 : 1 775 Kbps
Width                                    : 720 pixels
Height                                   : 304 pixels
Display aspect ratio                     : 2.35:1
Frame rate                               : 29.970 fps
Stream size                              : 1.35 GiB (82%)

Audio
ID                                       : 1
Format                                   : AC-3
Duration                                 : 1h 49mn
Bit rate mode                            : Constant
Bit rate                                 : 384 Kbps
Channel(s)                               : 2 channels
Channel positions                        : Front: L R
Stream size                              : 300 MiB (18%)



Encoder - LiMeY
Notes- if ya love it and you want it, put a Blur on it ;)
k, nothing cropped, No Worries used some very special filters for your viewing pleasure.
theres two lines of subs, the lower one is only half on screen so used a blur through the whole duration of movie.
the top blur on the other hand is blurred when subs are present,there was no piont blurring on acion scenes as there are no subs ;)
that VDub sub removal filter is very unstable at best, tried it and was a no go :(
but sure your gonna love this Long time, So from all of us at Dragon "Enjoy"  ;)

[img]http://i.imgur.com/YbjDc.jpg[/img]


Dont fear the Atomic Dragon, Embrace it  :)


Greetz to DragonMaster,cOOkies,Mr Geek,AnimeKing,Cush,NoWoRRiEs Rayne, Mr & Mrs IrNbRu and the rest of the crew

Respect to CM8,Goon,Hope,mSD,InfernO,legend-rg and maybe a few more ;)